<?xml version="1.0" standalone="no"?>
<!DOCTYPE svg PUBLIC "-//W3C//DTD SVG 20010904//EN"
 "http://www.w3.org/TR/2001/REC-SVG-20010904/DTD/svg10.dtd">
<svg version="1.0" xmlns="http://www.w3.org/2000/svg"
 width="260.000000pt" height="260.000000pt" viewBox="0 0 260.000000 260.000000"
 preserveAspectRatio="xMidYMid meet">
<metadata>
Created by potrace 1.11, written by Peter Selinger 2001-2013
</metadata>
<g transform="translate(0.000000,260.000000) scale(0.100000,-0.100000)"
fill="#000000" stroke="none">
<path d="M3 1678 l0 -923 315 -5 315 -5 3 -23 c8 -47 47 -150 86 -222 138
-258 411 -445 713 -487 64 -10 264 -10 335 -1 136 17 306 84 435 171 110 74
232 213 293 334 28 54 69 164 76 200 2 15 9 51 15 78 15 80 6 288 -17 376 -94
353 -362 602 -736 686 -78 17 -325 26 -381 13 l-34 -8 28 42 c70 101 88 271
41 391 -44 113 -182 225 -331 265 -125 35 -175 38 -665 39 l-491 2 0 -923z
m979 549 c157 -77 141 -283 -26 -346 -47 -17 -80 -20 -295 -21 l-241 -1 0 201
0 201 253 -3 252 -3 57 -28z m-169 -701 c-3 -6 -19 -27 -33 -46 -35 -44 -80
-129 -108 -200 -19 -50 -27 -79 -46 -162 l-6 -28 -100 0 -100 0 0 224 0 223
200 0 c146 1 198 -2 193 -11z m925 -27 c71 -14 176 -69 240 -125 159 -139 227
-367 173 -577 -80 -309 -379 -490 -682 -413 -140 36 -282 146 -352 272 -55 99
-54 104 19 119 281 59 450 239 452 482 0 82 -17 173 -44 225 -13 26 -13 27 14
30 40 4 119 -1 180 -13z m-607 -283 c-40 -63 -55 -62 -20 2 19 36 35 56 37 47
2 -8 -6 -30 -17 -49z"/>
</g>
</svg>
